<svg width="512" height="512" viewBox="0 0 512 512" fill="none" xmlns="http://www.w3.org/2000/svg">
<rect width="512" height="512" fill="black"/>
<circle cx="256" cy="256" r="256" fill="black"/>
<path fill-rule="evenodd" clip-rule="evenodd" d="M213.898 118.009C212.827 118.656 211.529 119.825 211.013 120.606C210.497 121.387 197.6 155.004 182.354 195.312C162.322 248.269 154.633 269.283 154.635 271.068C154.637 274.079 156.361 277.054 159.043 278.675C160.956 279.832 162.17 279.875 192.852 279.877C210.5 279.878 224.676 280.114 224.676 280.405C224.676 280.694 217.138 311.062 207.926 347.889C198.714 384.716 191.178 415.934 191.179 417.264C191.185 423.928 199.187 428.355 204.939 424.877C206.528 423.917 349.508 246.378 354.122 239.636C357.02 235.402 355.675 229.429 351.216 226.734C349.306 225.578 348.092 225.533 318.93 225.531C302.264 225.53 288.628 225.392 288.628 225.226C288.628 225.058 299.592 203.183 312.991 176.613C339.399 124.25 338.839 125.591 336.139 121.201C335.474 120.118 334.036 118.693 332.944 118.033C331.001 116.857 329.763 116.832 273.402 116.832C217.423 116.832 215.791 116.865 213.898 118.009Z" fill="url(#paint0_linear_1073_1641)"/>
<defs>
<linearGradient id="paint0_linear_1073_1641" x1="256.004" y1="-110" x2="255.144" y2="426.094" gradientUnits="userSpaceOnUse">
<stop offset="0.414307" stop-color="#FFD700"/>
<stop offset="0.58076" stop-color="#EF8545"/>
<stop offset="0.942832" stop-color="#B01A7C"/>
</linearGradient>
</defs>
</svg>
